<?xml version="1.0" standalone="no"?>
<!DOCTYPE svg PUBLIC "-//W3C//DTD SVG 20010904//EN"
 "http://www.w3.org/TR/2001/REC-SVG-20010904/DTD/svg10.dtd">
<svg version="1.0" xmlns="http://www.w3.org/2000/svg"
 width="712.000000pt" height="712.000000pt" viewBox="0 0 712.000000 712.000000"
 preserveAspectRatio="xMidYMid meet">
<metadata>
Created by potrace 1.14, written by Peter Selinger 2001-2017
</metadata>
<g transform="translate(0.000000,712.000000) scale(0.100000,-0.100000)"
fill="#000000" stroke="none">
<path d="M6440 6270 c0 -5 -7 -10 -16 -10 -9 0 -29 -13 -44 -30 -15 -16 -33
-30 -40 -30 -6 0 -38 -27 -70 -60 -32 -33 -64 -60 -70 -60 -6 0 -38 -27 -70
-60 -32 -33 -66 -60 -75 -60 -9 0 -13 -4 -10 -10 3 -5 1 -10 -5 -10 -6 0 -29
-18 -50 -40 -21 -22 -46 -40 -54 -40 -9 0 -16 -7 -16 -15 0 -9 -8 -19 -17 -22
-10 -4 -53 -42 -95 -85 -42 -43 -82 -78 -88 -78 -6 0 -33 -22 -60 -50 -27 -27
-56 -50 -65 -50 -9 0 -13 -4 -10 -10 3 -5 1 -10 -5 -10 -6 0 -29 -18 -50 -40
-21 -22 -44 -40 -50 -40 -6 0 -38 -27 -70 -60 -32 -33 -64 -60 -70 -60 -6 0
-46 -36 -90 -80 -44 -44 -83 -80 -88 -80 -5 0 -28 -18 -51 -40 -22 -22 -46
-40 -52 -40 -5 0 -7 -4 -4 -10 3 -6 -4 -10 -17 -10 -18 0 -20 -2 -8 -10 13 -8
12 -10 -3 -10 -10 0 -53 -36 -97 -80 -44 -44 -84 -80 -90 -80 -6 0 -42 -31
-80 -70 -38 -38 -74 -70 -80 -70 -6 0 -42 -31 -80 -70 -38 -38 -74 -70 -80
-70 -6 0 -29 -18 -50 -40 -21 -22 -44 -40 -50 -40 -6 0 -33 -22 -60 -50 -27
-27 -54 -50 -60 -50 -6 0 -46 -36 -90 -80 -44 -44 -84 -80 -90 -80 -6 0 -33
-22 -60 -50 -27 -27 -54 -50 -61 -50 -7 0 -10 -3 -6 -6 7 -7 -78 -94 -93 -94
-14 0 -60 -46 -60 -60 0 -15 -25 -40 -40 -40 -17 0 -40 -26 -40 -44 0 -9 -8
-16 -20 -16 -11 0 -20 -6 -20 -12 0 -9 -4 -8 -10 2 -8 13 -10 12 -10 -3 0 -20
-183 -207 -203 -207 -7 0 -19 -9 -27 -20 -8 -11 -21 -20 -30 -20 -9 0 -22 -9
-30 -20 -8 -11 -20 -20 -28 -20 -7 0 -20 -7 -29 -15 -8 -8 -19 -12 -25 -9 -7
4 -8 2 -4 -4 4 -7 2 -12 -4 -12 -6 0 -33 -22 -60 -50 -27 -27 -54 -50 -60 -50
-6 0 -33 -22 -60 -50 -26 -27 -54 -51 -61 -52 -7 -2 -48 -38 -91 -80 -42 -43
-82 -78 -88 -78 -6 0 -42 -32 -80 -70 -38 -38 -74 -70 -80 -70 -6 0 -38 -27
-70 -60 -32 -33 -64 -60 -70 -60 -6 0 -42 -31 -80 -70 -38 -38 -74 -70 -80
-70 -6 0 -42 -31 -80 -70 -38 -38 -74 -70 -80 -70 -6 0 -55 -45 -110 -100 -55
-55 -104 -100 -110 -100 -6 0 -38 -27 -70 -60 -32 -33 -64 -60 -70 -60 -13 0
-200 -186 -200 -200 0 -14 -87 -100 -101 -100 -6 0 -28 -18 -49 -40 -21 -22
-46 -40 -54 -40 -9 0 -16 -7 -16 -15 0 -9 -16 -31 -35 -50 -19 -19 -41 -35
-50 -35 -8 0 -15 -4 -15 -10 0 -5 -11 -10 -25 -10 -19 0 -47 -22 -105 -80 -44
-44 -84 -80 -90 -80 -15 0 -40 -25 -40 -40 0 -6 -4 -8 -10 -5 -5 3 -10 -3 -10
-14 0 -12 -7 -21 -15 -21 -9 0 -36 -20 -60 -45 -25 -24 -45 -51 -45 -60 0 -8
-7 -15 -15 -15 -9 0 -36 -20 -60 -45 -25 -24 -45 -51 -45 -60 0 -8 -4 -15 -10
-15 -5 0 -10 -11 -10 -24 0 -14 -4 -28 -10 -31 -5 -3 -10 -15 -10 -26 0 -10
-4 -19 -10 -19 -5 0 -10 -9 -10 -20 0 -11 -4 -20 -10 -20 -5 0 -10 -9 -10 -20
0 -18 7 -20 60 -20 33 0 60 4 60 10 0 6 9 10 20 10 11 0 20 5 20 10 0 6 9 10
20 10 11 0 20 5 20 10 0 6 7 10 16 10 8 0 33 18 54 40 21 22 43 40 49 40 17 0
101 87 101 105 0 8 7 15 16 15 8 0 33 18 54 40 21 22 46 40 54 40 9 0 16 5 16
10 0 6 7 10 15 10 18 0 85 64 85 80 0 16 67 80 85 80 8 0 15 5 15 10 0 6 9 10
20 10 12 0 20 7 20 16 0 18 24 44 40 44 7 0 25 14 40 30 15 17 33 30 40 30 6
0 38 27 70 60 32 33 64 60 70 60 6 0 42 32 80 70 38 39 74 70 80 70 6 0 33 23
60 50 27 28 54 50 60 50 6 0 46 36 90 80 44 44 84 80 90 80 6 0 46 36 90 80
44 44 84 80 90 80 6 0 33 23 60 50 27 28 54 50 60 50 6 0 46 36 90 80 44 44
84 80 90 80 6 0 42 32 80 70 38 38 74 70 80 70 6 0 42 31 80 70 38 38 75 70
82 70 8 0 20 9 28 20 8 11 18 20 22 20 4 0 8 -386 8 -857 0 -558 -4 -853 -10
-843 -7 11 -10 -4 -10 -48 0 -90 3 -92 154 -92 82 0 126 4 126 11 0 5 5 7 10
4 7 -4 10 153 10 465 0 395 2 474 14 486 12 12 75 14 366 14 232 0 349 -3 345
-10 -4 -7 48 -10 150 -10 122 0 160 3 171 14 10 11 14 43 14 130 l0 116 -402
4 c-222 3 -456 8 -520 11 l-118 6 0 320 0 319 600 0 601 0 -3 128 -3 127 -557
3 c-361 1 -558 6 -558 12 0 6 -9 10 -20 10 -11 0 -20 7 -20 15 0 18 44 65 60
65 6 0 38 27 70 60 32 33 63 60 68 60 6 0 33 23 61 50 28 28 57 50 64 50 7 0
19 9 27 20 8 11 21 20 28 20 7 0 31 18 52 40 21 22 43 40 50 40 6 0 46 36 90
80 44 44 84 80 90 80 6 0 46 36 90 80 44 44 84 80 90 80 6 0 33 23 60 50 27
28 54 50 60 50 14 0 34 21 38 38 3 18 48 62 62 62 6 0 38 27 70 60 32 33 64
60 70 60 6 0 55 45 110 100 55 55 104 100 110 100 6 0 40 29 75 65 36 36 70
65 75 65 5 0 39 29 75 65 35 36 69 65 75 65 6 0 46 36 90 80 44 44 84 80 90
80 6 0 42 32 80 70 38 39 74 70 80 70 6 0 41 31 78 68 37 37 75 71 85 75 9 3
17 13 17 22 0 8 7 15 15 15 9 0 51 36 95 80 44 44 84 80 90 80 6 0 42 32 80
70 38 39 74 70 80 70 6 0 46 36 90 80 44 44 84 80 90 80 15 0 41 26 33 34 -4
3 -1 6 5 6 7 0 46 34 87 75 l75 75 0 55 c0 30 -4 55 -10 55 -5 0 -10 12 -10
26 0 14 -6 32 -14 40 -17 16 -26 18 -26 4z"/>
</g>
</svg>
